<?xml version="1.0" encoding="iso-8859-1"?>
<!-- Generator: Adobe Illustrator 19.0.0, SVG Export Plug-In . SVG Version: 6.00 Build 0)  -->
<svg version="1.1" id="Capa_1" xmlns="http://www.w3.org/2000/svg" xmlns:xlink="http://www.w3.org/1999/xlink" x="0px" y="0px"
	 viewBox="0 0 512 512" style="enable-background:new 0 0 512 512;" xml:space="preserve">
<circle style="fill:#FF0000;" cx="256" cy="256" r="256"/>
<g>
	<path style="fill:#FFFFFF;" d="M94.728,225.504l10.24,39.368c2.24,8.64,4.32,16.64,5.768,24.64h0.48
		c1.768-7.832,4.32-16.168,6.88-24.488l12.64-39.52h11.84l12,38.728c2.88,9.28,5.128,17.448,6.88,25.28h0.488
		c1.28-7.832,3.36-16,5.92-25.128l11.04-38.88h13.92l-24.96,77.456h-12.808l-11.84-36.968c-2.72-8.64-4.96-16.32-6.88-25.448h-0.32
		c-1.92,9.28-4.32,17.28-7.04,25.608l-12.488,36.808H103.68l-23.36-77.456L94.728,225.504L94.728,225.504z"/>
	<path style="fill:#FFFFFF;" d="M214.408,225.504l10.24,39.368c2.24,8.64,4.32,16.64,5.768,24.64h0.48
		c1.768-7.832,4.32-16.168,6.88-24.488l12.64-39.52h11.84l12,38.728c2.88,9.28,5.128,17.448,6.88,25.28h0.488
		c1.28-7.832,3.36-16,5.92-25.128l11.04-38.88h13.92l-24.96,77.456h-12.808l-11.84-36.968c-2.72-8.64-4.96-16.32-6.88-25.448h-0.32
		c-1.92,9.28-4.32,17.28-7.04,25.608l-12.488,36.808H223.36L200,225.504L214.408,225.504L214.408,225.504z"/>
	<path style="fill:#FFFFFF;" d="M334.08,225.504l10.24,39.368c2.24,8.64,4.32,16.64,5.768,24.64h0.48
		c1.768-7.832,4.32-16.168,6.88-24.488l12.64-39.52h11.84l12,38.728c2.88,9.28,5.128,17.448,6.88,25.28h0.488
		c1.28-7.832,3.36-16,5.92-25.128l11.04-38.88h13.92l-24.96,77.456h-12.808l-11.84-36.968c-2.72-8.64-4.96-16.32-6.88-25.448h-0.32
		c-1.92,9.28-4.32,17.28-7.04,25.608L355.84,302.96h-12.8l-23.36-77.456H334.08z"/>
</g>
<g>
</g>
<g>
</g>
<g>
</g>
<g>
</g>
<g>
</g>
<g>
</g>
<g>
</g>
<g>
</g>
<g>
</g>
<g>
</g>
<g>
</g>
<g>
</g>
<g>
</g>
<g>
</g>
<g>
</g>
</svg>
